<svg width="29" height="28" viewBox="0 0 29 28" fill="none" xmlns="http://www.w3.org/2000/svg">
<g clip-path="url(#clip0)">
<path d="M14.4999 27.6C6.9799 27.6 0.899902 21.52 0.899902 14C0.899902 6.47999 6.9799 0.399994 14.4999 0.399994C22.0199 0.399994 28.0999 6.47999 28.0999 14C28.0999 21.52 22.0199 27.6 14.4999 27.6ZM14.4999 1.99999C7.8599 1.99999 2.4999 7.35999 2.4999 14C2.4999 20.64 7.8599 26 14.4999 26C21.1399 26 26.4999 20.64 26.4999 14C26.4999 7.35999 21.1399 1.99999 14.4999 1.99999Z" fill="black"/>
<path d="M7.30005 13.2H21.7V14.8H7.30005V13.2Z" fill="black"/>
<path d="M13.7 6.79999H15.3V21.2H13.7V6.79999Z" fill="black"/>
</g>
<defs>
<clipPath id="clip0">
<rect width="28" height="27.2" fill="white" transform="translate(0.5 0.399994)"/>
</clipPath>
</defs>
</svg>
