<svg width="20" height="20" viewBox="0 0 20 20" fill="none" xmlns="http://www.w3.org/2000/svg">
<g clip-path="url(#clip0)">
<path d="M9.99993 19.4286C4.6285 19.4286 0.285645 15.0857 0.285645 9.71429C0.285645 4.34286 4.6285 0 9.99993 0C15.3714 0 19.7142 4.34286 19.7142 9.71429C19.7142 15.0857 15.3714 19.4286 9.99993 19.4286ZM9.99993 1.14286C5.25707 1.14286 1.4285 4.97143 1.4285 9.71429C1.4285 14.4571 5.25707 18.2857 9.99993 18.2857C14.7428 18.2857 18.5714 14.4571 18.5714 9.71429C18.5714 4.97143 14.7428 1.14286 9.99993 1.14286Z" fill="black"/>
<path d="M4.85718 9.14288H15.1429V10.2857H4.85718V9.14288Z" fill="black"/>
</g>
<defs>
<clipPath id="clip0">
<rect width="20" height="19.4286" fill="white"/>
</clipPath>
</defs>
</svg>
