<svg width="15" height="15" viewBox="0 0 15 15" fill="none" xmlns="http://www.w3.org/2000/svg">
<path d="M14.7753 6.99017L7.07584 0.0821628C7.01674 0.0294943 6.94133 0 6.86185 0H5.05825C4.90744 0 4.83814 0.19382 4.95227 0.294944L12.0892 6.69944H0.163038C0.073367 6.69944 0 6.77528 0 6.86798V8.13202C0 8.22472 0.073367 8.30056 0.163038 8.30056H12.0872L4.95023 14.7051C4.83611 14.8083 4.9054 15 5.05621 15H6.92095C6.95967 15 6.99839 14.9853 7.02692 14.9579L14.7753 8.00983C14.8458 7.94641 14.9024 7.86808 14.9412 7.78013C14.9799 7.69218 15 7.59665 15 7.5C15 7.40335 14.9799 7.30782 14.9412 7.21987C14.9024 7.13192 14.8458 7.05359 14.7753 6.99017Z" fill="black"/>
</svg>
