<svg width="31" height="30" viewBox="0 0 31 30" fill="none" xmlns="http://www.w3.org/2000/svg">
<path fill-rule="evenodd" clip-rule="evenodd" d="M7.14478 2.58784C8.77652 1.47807 10.6118 0.702369 12.5449 0.305472C14.4779 -0.0914249 16.4704 -0.10166 18.4074 0.275359C20.3444 0.652377 22.1876 1.40919 23.8307 2.50213C25.4737 3.59507 26.8841 5.00252 27.9805 6.64329C29.0769 8.28405 29.8376 10.1257 30.2186 12.0619C30.5997 13.9981 30.5936 15.9906 30.2008 17.9245C29.8079 19.8583 29.0361 21.6953 27.9297 23.3293C26.8234 24.9634 25.4044 26.3622 23.7548 27.4451C20.4585 29.648 16.4221 30.4513 12.5336 29.6781C8.64508 28.905 5.22296 26.6188 3.02005 23.3225C0.817149 20.0263 0.013915 15.9899 0.787052 12.1014C1.56019 8.21286 3.84637 4.79074 7.14265 2.58784H7.14478ZM8.33213 25.6705C9.73102 26.6157 11.3029 27.2752 12.9575 27.6109C14.612 27.9467 16.3167 27.9521 17.9733 27.627C19.63 27.3018 21.2061 26.6525 22.611 25.7163C24.0159 24.78 25.222 23.5754 26.1598 22.1716C27.0977 20.7677 27.7489 19.1924 28.0759 17.5361C28.403 15.8798 28.3995 14.1752 28.0657 12.5202C27.7319 10.8653 27.0743 9.29261 26.1307 7.89263C25.1871 6.49264 23.9761 5.29293 22.5674 4.36245C19.7416 2.49596 16.2918 1.82411 12.9721 2.49376C9.65233 3.16341 6.73273 5.12009 4.85145 7.93607C2.97017 10.7521 2.28024 14.1983 2.93247 17.5215C3.5847 20.8447 5.52604 23.7745 8.33213 25.6705ZM12.2465 12.881C12.2465 13.4474 12.0215 13.9905 11.621 14.391C11.2205 14.7915 10.6774 15.0165 10.111 15.0165C9.54463 15.0165 9.00146 14.7915 8.60097 14.391C8.20049 13.9905 7.9755 13.4474 7.9755 12.881C7.9755 12.3146 8.20049 11.7714 8.60097 11.371C9.00146 10.9705 9.54463 10.7455 10.111 10.7455C10.6774 10.7455 11.2205 10.9705 11.621 11.371C12.0215 11.7714 12.2465 12.3146 12.2465 12.881ZM22.924 12.881C22.924 13.4474 22.6991 13.9905 22.2986 14.391C21.8981 14.7915 21.3549 15.0165 20.7885 15.0165C20.2222 15.0165 19.679 14.7915 19.2785 14.391C18.878 13.9905 18.653 13.4474 18.653 12.881C18.653 12.3146 18.878 11.7714 19.2785 11.371C19.679 10.9705 20.2222 10.7455 20.7885 10.7455C21.3549 10.7455 21.8981 10.9705 22.2986 11.371C22.6991 11.7714 22.924 12.3146 22.924 12.881ZM15.4498 21.423C14.2894 21.4259 13.15 21.1135 12.1532 20.5192C11.1565 19.9249 10.3399 19.0711 9.79068 18.0489L7.93279 19.074C8.68053 20.4577 9.7958 21.6081 11.1557 22.3984C12.5156 23.1887 14.0672 23.5882 15.6397 23.5529C17.2121 23.5176 18.7443 23.0488 20.0673 22.1982C21.3903 21.3476 22.4528 20.1482 23.1376 18.7323L21.2156 17.814C20.6903 18.8962 19.8709 19.8087 18.8512 20.447C17.8316 21.0852 16.6528 21.4235 15.4498 21.423Z" fill="black"/>
</svg>
