<svg width="16" height="17" viewBox="0 0 16 17" fill="none" xmlns="http://www.w3.org/2000/svg">
<path d="M7.33596 1.07495H8.66408C8.78214 1.07495 8.84117 1.12995 8.84117 1.23995V15.76C8.84117 15.87 8.78214 15.925 8.66408 15.925H7.33596C7.2179 15.925 7.15887 15.87 7.15887 15.76V1.23995C7.15887 1.12995 7.2179 1.07495 7.33596 1.07495Z" fill="black"/>
<path d="M0.56252 7.71631H15.4375C15.5556 7.71631 15.6146 7.77131 15.6146 7.88131V9.11881C15.6146 9.22881 15.5556 9.28381 15.4375 9.28381H0.56252C0.444465 9.28381 0.385437 9.22881 0.385437 9.11881V7.88131C0.385437 7.77131 0.444465 7.71631 0.56252 7.71631Z" fill="black"/>
</svg>
